<svg xmlns="http://www.w3.org/2000/svg" width="512" height="512" viewBox="0 0 512 512">
  <path fill="#5f92d3" d="M477.31055 327.61523c-74.87314 8.35439-131.07256 51.84799-199.06641 78.0586-34.47828 13.29086-60.38117 22.60843-80.71094 26.21094-20.32976 3.6025-34.6294 1.77921-48.15429-6.88282-14.26127-9.13363-16.20066-23.7051-14.17969-38.04687 1.01048-7.17089 3.13498-14.03174 5.24414-19.29297 1.05458-2.63061 2.10611-4.86592 2.97656-6.51172.87045-1.6458 1.77575-2.87207 1.58789-2.66016a5.55625 5.55625 0 0 0-.4707-7.84179 5.55625 5.55625 0 0 0-7.84375.4707c-1.26277 1.42453-2.01618 2.79113-3.09766 4.83594-1.08147 2.0448-2.27442 4.59791-3.46679 7.57226-2.38476 5.94871-4.76195 13.56431-5.9336 21.87891-2.3433 16.6292.6327 37.0704 19.18946 48.95508 16.04586 10.27658 34.14513 12.35317 56.08789 8.46484s48.18492-13.45135 82.76953-26.7832c69.87289-26.93495 125.08963-69.43704 196.30078-77.38281a5.55625 5.55625 0 0 0 4.90625-6.13868 5.55625 5.55625 0 0 0-6.13867-4.90625z" overflow="visible"/>
  <path fill="#80bbe9" fill-rule="evenodd" d="M506.11755-821.65763c36.5901-18.0629 86.55578-41.97788 101.22672-44.73638-1.50961 6.87754-4.75773 24.26943-9.72357 43.05201-8.60956 32.56445-26.61654 72.43838-63.48808 62.6224-9.98627-1.16522-14.98026-20.59872-28.01507-60.93803z" color="#000" overflow="visible" style="isolation:auto;mix-blend-mode:normal;solid-color:#000;solid-opacity:1" transform="matrix(1.02052 0 0 1.02052 -159.54722 986.30687)"/>
  <path fill="#7ebae4" fill-rule="evenodd" d="M113.5995 224.81444C79.91418 199.49847 76.60259 170.79575 58.288 118.777c35.9885 8.04467 60.03433 14.5567 85.5135 53.97022z" color="#000" overflow="visible" style="isolation:auto;mix-blend-mode:normal;solid-color:#000;solid-opacity:1"/>
  <path fill="#5277c3" d="M376.65715 177.63613c9.61391-1.16342 8.09818-11.23468 9.39087-9.10093.79403 1.31064 1.05581 3.76354.82824 4.94492-.53092 2.75615 1.29283-1.3614 2.79154-3.2549 1.05094-1.32778 1.95488-3.61551 1.78838-4.63768-.45187-2.77411 1.74046-.45063 1.44232 3.2049-.17466 2.14157 3.70611-2.16875 5.50307-1.33219 1.46586.68242-4.88402 3.75865-2.33841 4.68578 1.23313.44911 2.7509.76153 3.88653.44336 1.5162-.4248 2.5955-1.83085 2.09641-.402-.71636 2.05089-2.68117 3.21339-4.5811 4.06861-2.12441.95627 1.90861 1.44464.60047 2.09521-1.77578.88314-2.81724-.41325-3.70361 2.0045-.39613 1.08052 4.20007 1.01048 2.99285 2.0818-1.87856 1.66709-5.17249 1.29685-6.3612 3.42457-.26099.46715.55465 1.26885.55117 2.37478-.007 2.28089-1.54813 3.62194-1.86068 2.43563-1.64124-6.22947-11.61299 8.90479-11.57677 4.7691.0301-3.44023-1.46387-5.72226-.91884-8.78784.12888-.72491 2.27791-.91473 3.91691-1.85203.95614-.54679-1.67692.044-1.04089-.29749 2.22209-1.1929 2.77293-2.88412 2.16807-2.39882-1.73506 1.39211-5.46025 3.67477-6.30359 2.51414-1.54103-2.1208-1.20318-3.0695-4.47397-6.1194-1.16512-1.08643 3.13521-.61388 5.20223-.86402z"/>
  <path fill="#5277c3" d="M109.28833 196.27367c-1.92538-.7063-3.38355-1.10127-2.21427-1.56933.68687-.27496 2.01438-.58552 2.59047-1.1717.23898-.24318-.09828-.45754-.31329-1.03485-.56201-1.50902 2.01095 1.61253 3.78295.71002.85395-.43494-2.94253-2.92114-3.85943-3.77814-.35818-.33478.71382-.34203.55431-.5895-2.74858-4.26448-6.4096-4.02376-5.4255-4.89422 1.13166-1.001 2.6323-.46193 2.70346-.66946.31869-.92952-3.33672-2.7898-3.72935-3.7966-.58597-1.50262 3.58114 1.56814 3.2032.6191l-.62818-1.57741c-1.04307-2.61922 5.17462 4.60994 4.76273 2.62902-.31742-1.52658-1.95256-1.88739-1.29028-2.73689.61769-.7923 4.6426 4.0429 5.22327 3.95853 1.09732-.15945-.46434-3.21253.64332-3.26375.46764-.02163 2.38376 3.24765 2.69185 3.4292 1.28357.75632-.10995-2.48794-1.72318-3.6724-.92306-.67775 1.77036-.80095 2.87987.48937 1.18574 1.37897-.42857-1.89618.0246-1.76634 1.60022.45851 1.63784 2.82951 2.5759 4.12307 1.25227 1.72685 2.87627 3.638 3.49849 4.2335 1.89907 1.81756-.81956-3.82776 1.28633-4.58672.5907-.21288-.32698 1.93625 3.69465 5.43977 2.9518 2.57152 4.80409 3.1098 4.80624 3.446.0051.80314-1.9841 1.3297-3.79004 2.19884-1.35223.65077-2.01375 1.86473-2.50854 2.02956-1.18841.39591-3.4634-1.18215-3.70863-.60631-.11838.27797 2.50312 1.87627 1.63797 2.90825-1.20836 1.44138-2.81664 4.25333-3.22992 7.00704-.60626 4.03952.28952 6.82322-.46911 5.83526-1.44503-1.88182-2.50228-4.76314-4.05904-6.36834-2.80408-2.89129-6.20727-5.726-9.61085-6.97457z"/>
  <g fill-rule="evenodd" color="#000">
    <path fill="#7ebae4" d="m362.88537-628.243 244.41439.012-27.62229 48.8968-65.56199-.1817 32.55876 56.7371-13.96098 24.1585-28.52722.032-46.3013-80.7841-66.69317-.1353z" overflow="visible" style="isolation:auto;mix-blend-mode:normal;solid-color:#000;solid-opacity:1" transform="matrix(1.02052 0 0 1.02052 -159.54722 986.30687)"/>
    <path fill="#5277c3" d="M309.40365-710.2521 431.60048-498.577l-56.15706.5268-32.6236-56.8692-32.85645 56.5653-27.90237-.011-14.29086-24.6896 46.81047-80.4902-33.22946-57.8256z" overflow="visible" style="isolation:auto;mix-blend-mode:normal;solid-color:#000;solid-opacity:1" transform="matrix(1.02052 0 0 1.02052 -159.54722 986.30687)"/>
    <path fill="#80bbe9" d="m505.14292-720.98829-122.19683-211.6751 56.15706-.5268 32.6236 56.8692 32.85645-56.5653 27.90237.011 14.29086 24.6896-46.81047 80.4902 33.22946 57.8256z" overflow="visible" style="isolation:auto;mix-blend-mode:normal;solid-color:#000;solid-opacity:1" transform="matrix(1.02052 0 0 1.02052 -159.54722 986.30687)"/>
    <path fill="#7ebae4" d="M353.50926-797.4433 231.2917-585.7802l-28.53477-48.37 32.93839-56.6875-65.41521-.1719-13.9414-24.1698 14.23637-24.721 93.11177.2939 33.46371-57.6903z" overflow="visible" style="isolation:auto;mix-blend-mode:normal;solid-color:#000;solid-opacity:1" transform="matrix(1.02052 0 0 1.02052 -159.54722 986.30687)"/>
    <path fill="#5277c3" d="m314.49148-827.19196-14.3852-25.06778-32.55875-56.73717 13.96097-24.15851 28.52722-.0315 46.3013 80.78414 66.69317.13524 28.30621 48.7349-135.05899-.007c-10.59094-.00055-18.45103 10.66989-12.74368 22.40943 1.91207 3.93296-2.76773 5.95126-5.1317 2.43337-23.0007-41.1748-37.37536-61.12309-82.84195-68.29836 13.98671 21.26368 16.77352 84.5103 61.26223 100.70735 1.65727.60336 3.90416 2.39192.39942 2.44773-2.5884.0412-4.66829-.56111-6.90745-.40631-1.1654.0806-2.51727.22113-3.22002 1.15429-1.10901 1.47263-2.79049 1.42731-4.18833.34538-32.33492-24.09278-43.02244-96.24217-52.15704-106.56731-1.30802-1.47851-3.69947-2.56163-5.56452-1.8354-1.12384.43762-1.60327-.18123-.64345-.83132 3.94604-2.67264 5.8071-2.08491 6.05964-2.39356.16807-.20541-1.87471-3.88382-2.50388-7.84825-.14207-.8952.58492-1.47754 1.08643-.3319 5.47786 12.51363 22.78162 13.66168 28.92068 14.86349 23.19813 4.54137 34.08303 10.96458 58.84836 29.09404 3.80889 2.7883 11.58549 1.66927 13.95397-2.41394l3.58536-6.18105z" overflow="visible" style="isolation:auto;mix-blend-mode:normal;solid-color:#000;solid-opacity:1" transform="matrix(1.02052 0 0 1.02052 -159.54722 986.30687)"/>
    <path fill="#5277c3" d="M535.66452-763.37263 460.87178-633.8425l56.35871-.1464 33.46371-57.6904 93.11177.294 14.23636-24.7211-13.9414-24.1698-72.3131-.1718-8.41938-13.10304c-1.80975-2.8165.7268-5.86697 5.01887-8.60032 9.6126-6.12167 16.57492-15.14195 21.72155-28.03756 3.03199-7.59708 14.56824-52.92503 21.77869-75.4605 1.28832-4.02651 8.51432-10.8928 12.71897-14.3564 1.36061-1.12081.51299-2.97764-1.47382-2.11956-4.22173 1.8233-12.29445 7.03867-12.29445 7.03867s2.21784-6.1912 2.08794-9.26195c-.10365-2.45031-2.19358-1.74835-3.14294.4244-1.98908 4.5523-3.62578 8.68885-6.53818 11.44243-19.57712 18.50951-67.93813 9.15478-101.31258 48.20774 0 0 8.70757 23.05443 9.60872 37.52227.32324 5.18949 4.37638 2.86228 4.94581.15789 2.24964-10.68422 10.42951-10.79646 14.12817-8.64831.75516.43859-.0808-2.29252-3.46125-3.42442-.54692-.18313-.43158-.70621.0382-.85285 3.12917-.97673 4.81835-5.49753 3.27836-4.40015-4.09631 2.91898-9.61353.58824-5.30023-7.0341 19.71566-34.84095 39.8433-32.24111 73.40083-50.83419 2.91336-1.61419 7.35875-.69079 6.18668 3.50829-11.67755 41.83625-17.45136 94.05585-67.25815 94.05622-.69716.00001-1.52202.30857-1.83512.85081z" overflow="visible" style="isolation:auto;mix-blend-mode:normal;solid-color:#000;solid-opacity:1" transform="matrix(1.02052 0 0 1.02052 -159.54722 986.30687)"/>
  </g>
  <path fill="#2d789e" d="M175.69727 206.68555a5.9531 5.9531 0 0 0-3.78321 2.54101 5.9531 5.9531 0 0 0 1.66406 8.25196l24.76368 16.45507-24.80078 12.50977a5.9531 5.9531 0 0 0-2.63282 7.99609 5.9531 5.9531 0 0 0 7.9961 2.63282l33.93554-17.11915a5.9537 5.9537 0 0 0 .61328-10.27343l-33.28515-22.11719a5.9531 5.9531 0 0 0-4.4707-.87695z" overflow="visible"/>
  <path fill="#2d789e" d="M333.73047 203.31055a5.9531 5.9531 0 0 0-4.41797 1.11328l-30.03711 22.34961a5.9537 5.9537 0 0 0 .35156 9.79492l27.28711 17.41016a5.9531 5.9531 0 0 0 8.22071-1.81446 5.9531 5.9531 0 0 0-1.81641-8.2207l-20.01172-12.76953 23.11328-17.19727a5.9531 5.9531 0 0 0 1.22266-8.33008 5.9531 5.9531 0 0 0-3.91211-2.33593z" overflow="visible"/>
  <path fill="#2d789e" d="M232.98437 251.73437a5.9531 5.9531 0 0 0-4.10156 1.98438c-7.17648 8.06037-10.68804 16.22576-10.95312 23.69727-.26509 7.47151 2.97786 14.21711 8.5 17.94726s13.01352 4.23327 19.91601 1.18945c4.56668-2.01378 8.86663-5.61243 12.74219-10.55078 2.44066 3.19915 5.1918 5.73816 8.23047 7.4336 5.47767 3.05629 11.83256 3.39515 17.03125.97265 10.39737-4.84499 14.4484-19.20756 7.48242-34.59375a5.9531 5.9531 0 0 0-7.87891-2.96679 5.9531 5.9531 0 0 0-2.96679 7.8789c5.27792 11.65766 1.61221 17.36303-1.66602 18.89063-1.63911.7638-3.61283.8641-6.20117-.58008s-5.7329-4.65854-8.24023-10.66016a5.9537 5.9537 0 0 0-10.78516-.43164c-4.11329 7.98554-8.79656 12.05738-12.55078 13.71289-3.75423 1.65552-6.5007 1.1541-8.44922-.16211-1.94852-1.3162-3.40752-3.65877-3.26563-7.6582.1419-3.99943 2.14755-9.68713 7.94727-16.20117a5.9531 5.9531 0 0 0-.48828-8.40625 5.9531 5.9531 0 0 0-4.30274-1.4961z" overflow="visible"/>
  <path fill="#df90af" d="M212.57617 256.64453a4.49791 4.49791 0 0 0-3.24023 1.16211l-4.09571 3.7168-4.13086-2.46485a4.49836 4.49836 0 0 0-5.15429.38477l-5.33789 4.37305-5.32422-2.61719a4.49836 4.49836 0 0 0-5.12891.82031l-6 5.86914a4.49791 4.49791 0 0 0-.0703 6.35938 4.49791 4.49791 0 0 0 6.36133.0703l3.72461-3.64258 5.06445 2.49024a4.49836 4.49836 0 0 0 4.83594-.55665l5.13281-4.20703 4.2793 2.55274a4.49836 4.49836 0 0 0 5.32617-.53321l6.5625-5.95312a4.49791 4.49791 0 0 0 .30859-6.35352 4.49791 4.49791 0 0 0-3.11328-1.4707z" overflow="visible"/>
  <path fill="#df90af" d="M299.40039 253.96094a4.49791 4.49791 0 0 0-2.98047 1.7207 4.49791 4.49791 0 0 0 .82813 6.30664l5.81445 4.46484a4.49836 4.49836 0 0 0 4.32031.64258l7.30469-2.74414 5.5625 3.72266a4.49836 4.49836 0 0 0 4.46484.30859l6.06055-2.9414a4.49791 4.49791 0 0 0 2.08203-6.00977 4.49791 4.49791 0 0 0-6.00976-2.08203l-3.73829 1.81445-5.33789-3.57226a4.49836 4.49836 0 0 0-4.08203-.47266l-7.13086 2.67578-3.83203-2.9414a4.49791 4.49791 0 0 0-3.32617-.89258z" overflow="visible"/>
  <path fill="#7ebae4" d="M273.368 407.54903c-32.06033 12.29182-56.47408 20.90512-75.83378 24.33574-20.32974 3.60248-34.63137 1.77919-48.15625-6.88282-14.26126-9.13363-16.20065-23.70513-14.17969-38.04687 1.01048-7.17087 3.13499-14.03176 5.24414-19.29297 1.05458-2.63062 2.10612-4.86592 2.97656-6.51171.87045-1.64582 1.7777-2.87208 1.58985-2.66018 2.03426-2.29621 1.82267-5.80656-.47266-7.8418-2.29596-2.03606-5.80777-1.82531-7.84375.47072-1.26277 1.42452-2.01423 2.79112-3.0957 4.83593-1.08148 2.0448-2.27638 4.59793-3.46875 7.57227-2.38476 5.9487-4.76195 13.56431-5.9336 21.87889-2.34329 16.6292.63468 37.07043 19.19141 48.95509 16.04585 10.27658 34.1432 12.35318 56.08594 8.46484 21.94274-3.88832 48.18496-13.45136 82.76953-26.78319a431.59122 431.59122 0 0 0 2.97307-1.15879" color="#000" style="-inkscape-stroke:none"/>
</svg>

