<svg xmlns="http://www.w3.org/2000/svg" viewBox="0 0 1333.33 1333.3" shape-rendering="geometricPrecision" text-rendering="geometricPrecision" image-rendering="optimizeQuality" fill-rule="evenodd" clip-rule="evenodd"><path d="M855.49 1009.95c69.98-37.48 122.15-99.34 181.82-150.27 84.04 20.31 169.64 32.49 255.87 38.11-95.6 219.63-295.86 389.89-532.98 435.51-63.73-93.09-104.03-199.01-135.27-306.78 76.85-.32 156.83 9.68 230.56-16.56zM1.03 636c14.06-349.91 345.22-657.32 697-634.83 374.26 14.37 697.31 393.02 625.14 767.29-60.29-.62-120.27-22.8-153.08-76.23-87.16-131.52-127.15-287.41-206.5-423.32-56.87 9.06-113.41 20-169.64 32.49 21.56 152.77 117.46 280.54 152.77 428.94C930.47 860 767.39 932.79 654.92 872.49c-93.41-35.93-131.84-135.59-164.33-221.81-31.24-89.97-66.54-178.7-114.03-261.49-72.17-1.56-146.52.63-211.81 35.62 58.73 300.85 223.37 568.9 291.48 867.26C184.42 1205.21-16.15 922.79 1.04 636z" fill="#5dba1e" fill-rule="nonzero"/></svg>